<mxfile host="app.diagrams.net" modified="2021-10-22T02:03:27.433Z" agent="5.0 (Macintosh; Intel Mac OS X 10_15_7) AppleWebKit/537.36 (KHTML, like Gecko) Chrome/94.0.4606.61 Safari/537.36" etag="Ny9MmZfTCyCKQf6jE0hf" version="15.3.3" type="github">
  <diagram id="P5ZQ13PYrUqecjw7gkdw" name="第 1 页">
    <mxGraphModel dx="982" dy="662" grid="1" gridSize="10" guides="1" tooltips="1" connect="1" arrows="1" fold="1" page="1" pageScale="1" pageWidth="827" pageHeight="1169" math="0" shadow="0">
      <root>
        <mxCell id="0" />
        <mxCell id="1" parent="0" />
        <mxCell id="BF7hUxX9Nzz8UfVkJbzB-1" value="开始" style="rounded=1;whiteSpace=wrap;html=1;hachureGap=4;pointerEvents=0;fillColor=#dae8fc;strokeColor=#6c8ebf;" vertex="1" parent="1">
          <mxGeometry x="350" y="60" width="120" height="60" as="geometry" />
        </mxCell>
        <mxCell id="BF7hUxX9Nzz8UfVkJbzB-2" value="结束&lt;br&gt;" style="rounded=1;whiteSpace=wrap;html=1;hachureGap=4;pointerEvents=0;fillColor=#dae8fc;strokeColor=#6c8ebf;" vertex="1" parent="1">
          <mxGeometry x="350" y="555" width="120" height="60" as="geometry" />
        </mxCell>
        <mxCell id="BF7hUxX9Nzz8UfVkJbzB-3" value="" style="rounded=0;whiteSpace=wrap;html=1;hachureGap=4;pointerEvents=0;fillColor=#ffe6cc;strokeColor=#d79b00;" vertex="1" parent="1">
          <mxGeometry x="351" y="190" width="120" height="60" as="geometry" />
        </mxCell>
        <mxCell id="BF7hUxX9Nzz8UfVkJbzB-4" value="" style="rounded=0;whiteSpace=wrap;html=1;hachureGap=4;pointerEvents=0;fillColor=#ffe6cc;strokeColor=#d79b00;" vertex="1" parent="1">
          <mxGeometry x="570" y="360" width="120" height="60" as="geometry" />
        </mxCell>
        <mxCell id="BF7hUxX9Nzz8UfVkJbzB-5" value="" style="rhombus;whiteSpace=wrap;html=1;hachureGap=4;pointerEvents=0;fillColor=#f8cecc;strokeColor=#b85450;" vertex="1" parent="1">
          <mxGeometry x="370" y="350" width="80" height="80" as="geometry" />
        </mxCell>
        <mxCell id="BF7hUxX9Nzz8UfVkJbzB-6" value="" style="endArrow=classic;html=1;startSize=14;endSize=14;sourcePerimeterSpacing=8;targetPerimeterSpacing=8;exitX=0.5;exitY=1;exitDx=0;exitDy=0;entryX=0.5;entryY=0;entryDx=0;entryDy=0;" edge="1" parent="1" source="BF7hUxX9Nzz8UfVkJbzB-1" target="BF7hUxX9Nzz8UfVkJbzB-3">
          <mxGeometry width="50" height="50" relative="1" as="geometry">
            <mxPoint x="520" y="270" as="sourcePoint" />
            <mxPoint x="570" y="220" as="targetPoint" />
          </mxGeometry>
        </mxCell>
        <mxCell id="BF7hUxX9Nzz8UfVkJbzB-7" value="" style="endArrow=classic;html=1;startSize=14;endSize=14;sourcePerimeterSpacing=8;targetPerimeterSpacing=8;entryX=0.5;entryY=0;entryDx=0;entryDy=0;exitX=0.5;exitY=1;exitDx=0;exitDy=0;" edge="1" parent="1" source="BF7hUxX9Nzz8UfVkJbzB-3" target="BF7hUxX9Nzz8UfVkJbzB-5">
          <mxGeometry width="50" height="50" relative="1" as="geometry">
            <mxPoint x="580" y="280" as="sourcePoint" />
            <mxPoint x="630" y="230" as="targetPoint" />
          </mxGeometry>
        </mxCell>
        <mxCell id="BF7hUxX9Nzz8UfVkJbzB-8" value="" style="endArrow=classic;html=1;startSize=14;endSize=14;sourcePerimeterSpacing=8;targetPerimeterSpacing=8;exitX=1;exitY=0.5;exitDx=0;exitDy=0;entryX=0;entryY=0.5;entryDx=0;entryDy=0;" edge="1" parent="1" target="BF7hUxX9Nzz8UfVkJbzB-4">
          <mxGeometry width="50" height="50" relative="1" as="geometry">
            <mxPoint x="450" y="389" as="sourcePoint" />
            <mxPoint x="570" y="399" as="targetPoint" />
          </mxGeometry>
        </mxCell>
        <mxCell id="BF7hUxX9Nzz8UfVkJbzB-10" value="" style="endArrow=classic;html=1;startSize=14;endSize=14;sourcePerimeterSpacing=8;targetPerimeterSpacing=8;exitX=0.5;exitY=1;exitDx=0;exitDy=0;entryX=0.5;entryY=0;entryDx=0;entryDy=0;" edge="1" parent="1" source="BF7hUxX9Nzz8UfVkJbzB-5" target="BF7hUxX9Nzz8UfVkJbzB-2">
          <mxGeometry width="50" height="50" relative="1" as="geometry">
            <mxPoint x="250" y="540" as="sourcePoint" />
            <mxPoint x="300" y="490" as="targetPoint" />
          </mxGeometry>
        </mxCell>
        <mxCell id="BF7hUxX9Nzz8UfVkJbzB-13" value="" style="curved=1;endArrow=classic;html=1;startSize=14;endSize=14;sourcePerimeterSpacing=8;targetPerimeterSpacing=8;exitX=0.5;exitY=1;exitDx=0;exitDy=0;entryX=1;entryY=0.5;entryDx=0;entryDy=0;" edge="1" parent="1" source="BF7hUxX9Nzz8UfVkJbzB-4" target="BF7hUxX9Nzz8UfVkJbzB-2">
          <mxGeometry width="50" height="50" relative="1" as="geometry">
            <mxPoint x="640" y="540" as="sourcePoint" />
            <mxPoint x="690" y="490" as="targetPoint" />
            <Array as="points">
              <mxPoint x="630" y="480" />
              <mxPoint x="630" y="590" />
            </Array>
          </mxGeometry>
        </mxCell>
      </root>
    </mxGraphModel>
  </diagram>
</mxfile>
